<?xml version="1.0" encoding="UTF-8"?>
<svg version="1.1" xmlns="http://www.w3.org/2000/svg" width="560" height="539">
<path d="M0 0 C1.75631928 -0.01660283 3.51256982 -0.04394965 5.26855469 -0.08203125 C17.89580232 -0.35189438 28.27005527 1.10717845 40.13427734 5.35009766 C42.16219247 6.04984073 44.19054477 6.7483176 46.21923828 7.44580078 C51.91388008 9.42034438 57.58478379 11.45540433 63.24902344 13.51538086 C66.78247675 14.79600579 70.32336263 16.05448616 73.86474609 17.31298828 C76.13476584 18.13520858 78.40431492 18.95872974 80.67333984 19.78369141 C81.72131744 20.15264023 82.76929504 20.52158905 83.84902954 20.90171814 C92.12678113 23.95693793 97.68562059 27.11434061 101.8046875 35.1105957 C102.60036818 36.84845517 103.37715275 38.59509748 104.13427734 40.35009766 C104.48963562 41.14493561 104.8449939 41.93977356 105.21112061 42.75869751 C106.30055038 45.22356313 107.35747134 47.70032732 108.40771484 50.18212891 C108.80400589 51.11098907 109.20029694 52.03984924 109.6085968 52.99685669 C110.46383515 55.00191033 111.31776457 57.0075227 112.17050171 59.01364136 C114.49909206 64.49075722 116.83835778 69.96331066 119.17724609 75.43603516 C119.66455704 76.57674973 120.15186798 77.71746429 120.65394592 78.89274597 C125.99315653 91.37945336 131.40563992 103.83411429 136.82177734 116.28759766 C143.99581337 132.78859651 151.13136828 149.3049055 158.20278931 165.85012817 C165.67299771 183.32373869 173.23749358 200.75606571 180.81787109 218.18212891 C187.64480196 233.8814736 194.4030042 249.60952227 201.13427734 265.35009766 C202.07629844 267.55226158 203.0183551 269.75441028 203.96044922 271.95654297 C204.6509008 273.57046684 204.6509008 273.57046684 205.3553009 275.21699524 C215.78679265 299.59906237 226.24780008 323.9668854 236.82177734 348.28759766 C246.94088172 371.56329087 256.97369656 394.87497132 266.94042969 418.21630859 C268.59483994 422.09001033 270.25436618 425.96147345 271.91757202 429.83140564 C273.18102207 432.77354817 274.43857082 435.71820974 275.69677734 438.66259766 C276.31311035 440.09091919 276.31311035 440.09091919 276.94189453 441.5480957 C285.95581486 462.73779601 285.95581486 462.73779601 284.13427734 474.35009766 C280.49783509 480.0980225 273.45061048 482.56150645 267.01000977 484.09301758 C263.41331955 484.76518761 259.8131095 485.35570249 256.19677734 485.91259766 C254.87258478 486.12416658 253.5484482 486.33608612 252.22436523 486.54833984 C236.26068595 489.0687494 220.21566638 490.95983328 204.09643555 492.13183594 C202.35824405 492.2599117 200.62061133 492.39726595 198.88500977 492.55664062 C186.43255355 493.6684952 176.62215138 490.32582191 165.13232422 485.87109375 C161.1660264 484.34684791 157.17016839 482.90890945 153.17129517 481.47268677 C149.264533 480.0691437 145.36268056 478.65224432 141.46136475 477.23364258 C139.50094763 476.52238491 137.53924054 475.81467227 135.57623291 475.1105957 C132.78565435 474.10651041 130.00243459 473.0841129 127.22021484 472.05712891 C126.37839661 471.758293 125.53657837 471.45945709 124.66925049 471.15156555 C119.06834027 469.05676035 115.15406739 466.67463042 111.95019531 461.40112305 C111.67836426 460.75651123 111.4065332 460.11189941 111.12646484 459.44775391 C110.78856934 458.66150635 110.45067383 457.87525879 110.10253906 457.06518555 C109.7417627 456.18983154 109.38098633 455.31447754 109.00927734 454.41259766 C108.61111816 453.47343506 108.21295898 452.53427246 107.80273438 451.56665039 C106.55165179 448.59887706 105.31525242 445.62536904 104.08496094 442.64892578 C102.99819165 440.02103169 101.90810715 437.3945241 100.81787109 434.76806641 C95.23195204 421.30557287 89.67421313 407.83157314 84.13427734 394.35009766 C69.30242724 394.94428463 54.60369749 396.62229144 39.86004066 398.27849889 C36.3466826 398.67194326 32.83268297 399.0595678 29.31872559 399.44761658 C18.91085181 400.59804354 8.5040463 401.7580323 -1.90270996 402.91851807 C-10.0260929 403.82422371 -18.14972757 404.72754805 -26.27410364 405.62430662 C-30.4376581 406.08414233 -34.60066104 406.54860524 -38.76329136 407.01672947 C-41.96301925 407.37532207 -45.16345056 407.72753817 -48.36376953 408.08081055 C-49.50159882 408.21014984 -50.6394281 408.33948914 -51.81173706 408.4727478 C-57.8738685 409.13516006 -63.76746417 409.48019337 -69.86572266 409.35009766 C-70.24700317 411.22169556 -70.24700317 411.22169556 -70.63598633 413.13110352 C-71.90602483 418.8305566 -73.70159393 424.31686397 -75.54150391 429.85400391 C-75.90329239 430.95481293 -76.26508087 432.05562195 -76.63783264 433.18978882 C-77.81388898 436.76541498 -78.99589349 440.3390413 -80.17822266 443.91259766 C-81.40294922 447.62716746 -82.6264227 451.34214815 -83.84967041 455.0572052 C-84.67092315 457.55133229 -85.4926606 460.04529982 -86.31488037 462.53910828 C-88.84289133 470.21385244 -91.34057982 477.89758078 -93.80712891 485.59228516 C-94.10454483 486.51784714 -94.40196075 487.44340912 -94.70838928 488.39701843 C-96.37792624 493.5916845 -96.37792624 493.5916845 -98.0350647 498.79031372 C-98.77245585 501.11287208 -99.51755838 503.43283053 -100.26416016 505.75244141 C-100.47073746 506.41150482 -100.67731476 507.07056824 -100.89015198 507.74960327 C-103.62660013 516.19059644 -106.66120774 523.07176076 -114.77124023 527.35693359 C-120.68107452 530.08969448 -126.48344617 531.63049149 -132.86572266 532.85009766 C-133.93387207 533.05658936 -135.00202148 533.26308105 -136.10253906 533.47583008 C-144.43041254 535.02121478 -152.79171063 536.30738164 -161.19042969 537.39599609 C-163.13676554 537.64908001 -165.08138824 537.91523803 -167.02587891 538.18212891 C-171.30395262 538.70120762 -175.56801477 539.04904935 -179.86572266 539.35009766 C-180.80713104 539.43028137 -181.74853943 539.51046509 -182.71847534 539.59307861 C-202.59979077 541.12890998 -218.46250671 536.48380843 -236.6472168 529.3848877 C-239.39216228 528.32422809 -242.1512145 527.30355003 -244.91162586 526.28395462 C-271.89134345 516.31166647 -271.89134345 516.31166647 -275.86572266 510.35009766 C-278.27763172 492.42580504 -269.1456862 474.20434573 -263.08618164 457.76831055 C-261.07573567 452.31389986 -259.08020957 446.85404252 -257.0846138 441.39418411 C-256.62240014 440.12978873 -256.15999426 438.8654636 -255.69739914 437.60120773 C-250.67636908 423.87828582 -245.76378472 410.11732574 -240.86572266 396.35009766 C-233.8622642 376.67814196 -226.77064334 357.04019074 -219.61572266 337.42285156 C-213.29576924 320.08988556 -207.05477464 302.73021277 -200.86572266 285.35009766 C-193.86073829 265.67867868 -186.77064804 246.04020361 -179.61572266 226.42285156 C-173.29576924 209.08988556 -167.05477464 191.73021277 -160.86572266 174.35009766 C-153.86551678 154.69209765 -146.78290059 135.06601144 -139.62982178 115.46313477 C-134.8334436 102.31611669 -130.06905617 89.15846655 -125.37353516 75.97509766 C-125.146567 75.33808426 -124.91959885 74.70107086 -124.68575287 74.04475403 C-122.28016799 67.29251634 -119.87998397 60.53838806 -117.48681641 53.78173828 C-103.89385238 15.47926213 -103.89385238 15.47926213 -96.48681641 10.86962891 C-69.78196889 -1.7956743 -29.21203164 0.20086325 0 0 Z M1.13427734 187.35009766 C0.92733246 187.97315292 0.72038757 188.59620819 0.50717163 189.23814392 C-2.1562088 197.25548853 -4.82236019 205.27190994 -7.49072266 213.28759766 C-7.70499531 213.93127163 -7.91926796 214.5749456 -8.14003372 215.23812485 C-14.77705745 235.17258298 -21.48264601 255.08208561 -28.30523682 274.95393372 C-29.27507081 277.78019855 -30.24242533 280.60730762 -31.20916748 283.43463135 C-31.84543072 285.29089697 -32.48660023 287.14547864 -33.12792969 289 C-33.49644043 290.07846191 -33.86495117 291.15692383 -34.24462891 292.26806641 C-34.56117432 293.18740967 -34.87771973 294.10675293 -35.20385742 295.05395508 C-36.00420957 297.43226455 -36.00420957 297.43226455 -35.86572266 300.35009766 C-8.85160215 297.81516774 18.14767596 295.16318062 45.13427734 292.35009766 C43.23143331 286.4075973 41.10365498 280.62415775 38.68505859 274.87353516 C38.35521973 274.08168823 38.02538086 273.28984131 37.68554688 272.47399902 C36.97699166 270.77374709 36.26704409 269.07407483 35.55581665 267.37493896 C33.64831228 262.81731523 31.75156853 258.25521055 29.85302734 253.69384766 C29.46294998 252.75749481 29.07287262 251.82114197 28.67097473 250.85641479 C24.56372155 240.99264023 20.50083934 231.11082868 16.44677734 221.22509766 C16.11956696 220.42819519 15.79235657 219.63129272 15.45523071 218.8102417 C14.5102431 216.50873528 13.56631811 214.20679539 12.62255859 211.90478516 C12.17853447 210.82431412 12.17853447 210.82431412 11.72554016 209.72201538 C10.25776444 206.13999258 8.81604462 202.55038711 7.41699219 198.94091797 C7.14437057 198.2421756 6.87174896 197.54343323 6.59086609 196.82351685 C5.84993716 194.91805804 5.11718923 193.00942384 4.38500977 191.10058594 C3.4304299 188.23605782 3.4304299 188.23605782 1.13427734 187.35009766 Z " fill="#F5454A" transform="translate(275.86572265625,-0.35009765625)"/>
<path d="M0 0 C1.75631928 -0.01660283 3.51256982 -0.04394965 5.26855469 -0.08203125 C17.86469224 -0.35122951 28.30111153 1.07616065 40.13427734 5.35009766 C41.95007274 5.98749123 43.76599798 6.62451498 45.58203125 7.26123047 C51.4717695 9.34624638 57.33484052 11.50091544 63.19677734 13.66259766 C65.23891431 14.41113781 67.28123104 15.15918773 69.32373047 15.90673828 C74.26265995 17.71556176 79.19935933 19.53036025 84.13427734 21.35009766 C84.13427734 22.01009766 84.13427734 22.67009766 84.13427734 23.35009766 C83.17803467 23.33438721 82.22179199 23.31867676 81.23657227 23.30249023 C18.74311128 19.37923501 18.74311128 19.37923501 -38.86572266 35.91259766 C-46.62574095 43.89399978 -49.47205966 57.27978926 -53.11572266 67.60009766 C-54.02890191 70.16982393 -54.94385616 72.73891352 -55.85900879 75.30793762 C-56.50493964 77.12122441 -57.15035678 78.93469426 -57.79528809 80.74833679 C-60.2878489 87.75129111 -62.81251152 94.74225045 -65.35009766 101.72900391 C-65.72636292 102.76558136 -66.10262817 103.80215881 -66.49029541 104.87014771 C-67.9741802 108.95722795 -69.4583799 113.04418803 -70.94641113 117.12976074 C-74.70125808 127.44203876 -78.42485027 137.75320249 -81.78833008 148.2011261 C-83.28506737 152.80181643 -85.01429561 157.27054895 -86.83248901 161.75334167 C-88.58102286 166.1478131 -90.15776397 170.60226255 -91.74462891 175.05712891 C-92.10878906 176.07459198 -92.47294922 177.09205505 -92.84814453 178.14035034 C-94.04320096 181.48049529 -95.23568446 184.82155288 -96.42822266 188.16259766 C-97.27494574 190.53026386 -98.12187328 192.89785695 -98.96899414 195.26538086 C-100.72835345 200.18297748 -102.48683545 205.10088642 -104.24462891 210.01904297 C-108.29894413 221.3610272 -112.36347074 232.69935051 -116.42822266 244.03759766 C-116.82167877 245.13531494 -117.21513489 246.23303223 -117.62051392 247.36401367 C-124.00332321 265.17117025 -130.40456425 282.97163818 -136.81518555 300.76879883 C-142.75925246 317.27144939 -148.69294368 333.77781487 -154.62382889 350.28520584 C-163.59794898 375.26261894 -172.58070279 400.23690667 -181.57373047 425.20751953 C-184.28315154 432.73109983 -186.99067457 440.255362 -189.69775391 447.77978516 C-190.90665906 451.13951623 -192.11559926 454.49923469 -193.32455444 457.85894775 C-194.08365377 459.9687246 -194.84263223 462.07854493 -195.60147095 464.18841553 C-196.66056496 467.13305849 -197.72009867 470.07754286 -198.77978516 473.02197266 C-199.11715195 473.95996201 -199.45451874 474.89795135 -199.80210876 475.86436462 C-201.54795395 480.71286224 -203.30474912 485.55707197 -205.07763672 490.39575195 C-205.43900726 491.38347595 -205.80037781 492.37119995 -206.17269897 493.38885498 C-206.85567664 495.25368026 -207.54060461 497.11779299 -208.22793579 498.98101807 C-215.08070731 515.47876283 -215.08070731 515.47876283 -213.95947266 532.44775391 C-212.78857623 534.62030289 -212.78857623 534.62030289 -210.86572266 537.35009766 C-218.14441664 535.25750195 -225.26979291 532.85064823 -232.38525391 530.26025391 C-233.44685226 529.87445663 -234.50845062 529.48865936 -235.60221863 529.09117126 C-237.82892606 528.28013965 -240.05501833 527.46741723 -242.28051758 526.65307617 C-245.68269121 525.41096622 -249.08953052 524.18226944 -252.49658203 522.95361328 C-254.668107 522.16081749 -256.83934142 521.36722531 -259.01025391 520.57275391 C-260.02489212 520.20908218 -261.03953033 519.84541046 -262.08491516 519.47071838 C-273.39470867 515.29212563 -273.39470867 515.29212563 -275.86572266 510.35009766 C-277.74331834 492.08377391 -269.27585926 474.55743219 -263.08618164 457.76831055 C-261.07573567 452.31389986 -259.08020957 446.85404252 -257.0846138 441.39418411 C-256.62240014 440.12978873 -256.15999426 438.8654636 -255.69739914 437.60120773 C-250.67636908 423.87828582 -245.76378472 410.11732574 -240.86572266 396.35009766 C-233.8622642 376.67814196 -226.77064334 357.04019074 -219.61572266 337.42285156 C-213.29576924 320.08988556 -207.05477464 302.73021277 -200.86572266 285.35009766 C-193.86073829 265.67867868 -186.77064804 246.04020361 -179.61572266 226.42285156 C-173.29576924 209.08988556 -167.05477464 191.73021277 -160.86572266 174.35009766 C-153.86551678 154.69209765 -146.78290059 135.06601144 -139.62982178 115.46313477 C-134.8334436 102.31611669 -130.06905617 89.15846655 -125.37353516 75.97509766 C-125.146567 75.33808426 -124.91959885 74.70107086 -124.68575287 74.04475403 C-122.28016799 67.29251634 -119.87998397 60.53838806 -117.48681641 53.78173828 C-103.89385238 15.47926213 -103.89385238 15.47926213 -96.48681641 10.86962891 C-69.78196889 -1.7956743 -29.21203164 0.20086325 0 0 Z " fill="#811F3D" transform="translate(275.86572265625,-0.35009765625)"/>
<path d="M0 0 C2.0193657 2.0193657 2.65502524 3.23844639 3.71728516 5.83081055 C4.21115219 7.02555244 4.21115219 7.02555244 4.71499634 8.24443054 C5.06943817 9.11638565 5.42388 9.98834076 5.7890625 10.88671875 C6.1642099 11.79827225 6.5393573 12.70982574 6.9258728 13.64900208 C8.16365703 16.65991213 9.39431103 19.67368365 10.625 22.6875 C11.48912741 24.79315591 12.35371577 26.89862271 13.21875 29.00390625 C15.40914496 34.33789816 17.59393571 39.67416458 19.77697754 45.01116943 C21.56457992 49.37972422 23.35626458 53.74659995 25.1484375 58.11328125 C25.79518151 59.68928401 26.44191019 61.26529305 27.08862305 62.84130859 C27.40390961 63.60965027 27.71919617 64.37799194 28.04403687 65.1696167 C29.01138348 67.5277499 29.97806342 69.88615543 30.94458008 72.24462891 C36.04664658 84.6924327 41.1752376 97.12918467 46.3125 109.5625 C46.70570435 110.51435181 47.09890869 111.46620361 47.50402832 112.44689941 C51.62571336 122.42427213 55.75060336 132.40030522 59.88322449 142.37315369 C61.59530494 146.50542292 63.30594972 150.63828576 65.01644897 154.77120972 C65.82320203 156.71936437 66.63064844 158.66723209 67.43887329 160.61477661 C72.44808651 172.68552199 77.31999798 184.79763241 82 197 C49.72775013 200.56254774 17.43675555 203.89169206 -14.8779068 207.04434204 C-17.61410995 207.31143697 -20.35024349 207.57923556 -23.08636475 207.84716797 C-27.45617096 208.27480616 -31.82618997 208.70020313 -36.19638824 209.12381554 C-37.81067364 209.28046749 -39.42490828 209.43764359 -41.03908539 209.59540749 C-50.68596575 210.53714852 -60.32719798 211.36432022 -70 212 C-68.87741331 205.82577318 -67.07586095 200.03326771 -65 194.125 C-64.60820557 193.00073608 -64.60820557 193.00073608 -64.20849609 191.85375977 C-63.05068338 188.61239744 -61.9180312 185.87704679 -60 183 C-57.44818115 182.32254028 -57.44818115 182.32254028 -54.24121094 181.90673828 C-53.06683472 181.75062073 -51.8924585 181.59450317 -50.68249512 181.43365479 C-48.85966003 181.21899567 -48.85966003 181.21899567 -47 181 C-45.88371216 180.86801208 -44.76742432 180.73602417 -43.61730957 180.60003662 C-40.1270777 180.2082604 -36.63493305 179.84570494 -33.140625 179.4921875 C-31.87079773 179.36184113 -30.60097046 179.23149475 -29.29266357 179.09719849 C-26.63064818 178.82499483 -23.96853644 178.55417279 -21.30615234 178.28564453 C-17.91804717 177.94363663 -14.53072655 177.59443672 -11.1435585 177.24328423 C-7.87218019 176.90532747 -4.60011879 176.57412399 -1.328125 176.2421875 C-0.1248053 176.11721893 1.0785144 175.99225037 2.31829834 175.86349487 C8.58368281 175.23799827 14.70360723 174.86669421 21 175 C20.74940323 174.43731415 20.49880646 173.8746283 20.24061584 173.29489136 C13.86720796 158.96446732 7.90024556 144.4887669 2.05395508 129.93774414 C-1.46111281 121.20050928 -5.03828044 112.49425321 -8.70703125 103.8203125 C-9.49288255 101.95496818 -10.27860946 100.08957146 -11.06420898 98.22412109 C-12.20803024 95.50876616 -13.35556053 92.79535096 -14.51638794 90.08721924 C-15.59171682 87.57806937 -16.6525024 85.06318826 -17.7109375 82.546875 C-18.03000565 81.81397247 -18.34907379 81.08106995 -18.67781067 80.32595825 C-22.47483185 71.20905378 -22.43081615 64.44381505 -19.140625 55.1796875 C-18.68305817 53.82534103 -18.68305817 53.82534103 -18.21624756 52.44363403 C-17.24431637 49.58134838 -16.24735369 46.72851291 -15.25 43.875 C-14.59475576 41.95236692 -13.94109497 40.02919343 -13.2890625 38.10546875 C-10.73705444 30.62673704 -8.14940679 23.24906081 -5 16 C-4.51065651 14.61474703 -4.04288721 13.22133385 -3.61328125 11.81640625 C-3.39736328 11.11708984 -3.18144531 10.41777344 -2.95898438 9.69726562 C-2.74564453 8.99279297 -2.53230469 8.28832031 -2.3125 7.5625 C-2.08755859 6.83095703 -1.86261719 6.09941406 -1.63085938 5.34570312 C-1.08380134 3.56485464 -0.54140628 1.78257483 0 0 Z " fill="#811B3C" transform="translate(300,117)"/>
<path d="M0 0 C3.32567817 6.46198895 6.345766 12.97174179 9.08203125 19.703125 C9.45361359 20.60790588 9.82519592 21.51268677 10.20803833 22.44488525 C11.0018954 24.37855148 11.79415624 26.31287371 12.58493042 28.24780273 C14.68021332 33.37211722 16.79055191 38.490235 18.8984375 43.609375 C19.32452805 44.64505615 19.75061859 45.6807373 20.18962097 46.74780273 C24.07312718 56.18577759 27.96927401 65.61830538 31.90756226 75.03356934 C32.58901319 76.66546553 33.26810812 78.29834774 33.94473267 79.93225098 C34.88292681 82.19698065 35.8290848 84.45821961 36.77734375 86.71875 C37.04636505 87.37296936 37.31538635 88.02718872 37.59255981 88.70123291 C39.3278094 92.80550001 41.51689109 96.31392981 44 100 C44 100.66 44 101.32 44 102 C36.89345347 99.94538908 29.91473771 97.62835875 22.953125 95.12890625 C21.93829041 94.76530502 20.92345581 94.4017038 19.87786865 94.02708435 C17.74957962 93.26297365 15.62183928 92.49733308 13.49462891 91.73022461 C10.24784516 90.56172449 6.99706538 89.40483583 3.74609375 88.24804688 C1.6690143 87.50071261 -0.40781745 86.75268945 -2.484375 86.00390625 C-3.45010437 85.66210831 -4.41583374 85.32031036 -5.41082764 84.96815491 C-17.48886399 80.57485724 -17.48886399 80.57485724 -20.9921875 74.60546875 C-21.63941492 73.14133075 -22.26526445 71.6676439 -22.875 70.1875 C-23.23303711 69.35726318 -23.59107422 68.52702637 -23.95996094 67.67163086 C-25.33211974 64.45796372 -26.6667717 61.23002136 -28 58 C-28.62960501 56.48393408 -29.25950709 54.96799151 -29.88964844 53.45214844 C-42.98608289 21.9161427 -42.98608289 21.9161427 -49 6 C-46.7951246 3.7951246 -41.99249161 4.16577399 -38.92578125 3.80859375 C-37.5508979 3.64424583 -37.5508979 3.64424583 -36.14823914 3.47657776 C-34.20234708 3.2450551 -32.2561956 3.01570431 -30.30981445 2.78833008 C-27.34188016 2.44093889 -24.37502537 2.08526508 -21.40820312 1.72851562 C-19.51828836 1.50470795 -17.62831608 1.28138522 -15.73828125 1.05859375 C-14.85368729 0.95236191 -13.96909332 0.84613007 -13.05769348 0.73667908 C-8.67681367 0.22974271 -4.41981391 -0.12228377 0 0 Z " fill="#A93140" transform="translate(409,387)"/>
</svg>
